<?xml version="1.0" encoding="UTF-8"?>
<svg xmlns="http://www.w3.org/2000/svg" version="1.1" viewBox="0 0 256 256">
  <defs>
    <style>
      .cls-1 {
        fill: #fff;
      }
    </style>
  </defs>
  <!-- Generator: Adobe Illustrator 28.7.1, SVG Export Plug-In . SVG Version: 1.2.0 Build 142)  -->
  <g>
    <g id="_圖層_1" data-name="圖層_1">
      <g id="_圖層_1-2" data-name="_圖層_1">
        <g id="_圖層_1-2">
          <path class="cls-1" d="M216.5,227.1c-4.5-5.1-10-9-16.6-11.8h0c-7.9-3.5-16.2-5.3-24-8.2-7-2.6-12-6-15.2-10.4s-4.8-9.8-4.8-16.7,0-2.5.1-3.8c0-.8.2-1.5.5-2.1s.7-1.2,1.3-1.8c8.1-8.5,15.3-17.8,18.7-29.5.5-1.7,1-3.2,1.6-4.3.7-1.1,1.5-2,3.1-2.6,1-.4,1.7-1,2.4-1.7s1.2-1.4,1.7-2.1c5.9-8,8.2-17.3,8.4-26.9v-.4c0-2.2-.2-4.4-1.2-6.5-.5-1-1.2-2-2.1-2.8-.9-.8-2.1-1.5-3.4-2-.4-.2-.6-.3-.7-.4,0,0-.2-.3-.2-.7v-.7c.4-1.8.5-3.6.7-5.2.9-6.7,1.6-13.5,1.6-20.3s-.4-9.7-1.3-14.6c-1.4-7.6-4.1-14.3-8.4-19.6-4.3-5.3-10.4-9.2-18.3-11.3-.8-.2-1.5-.7-2.1-1.3h0c-1.3-1.6-3.1-2.9-5.1-3.9-3-1.5-6.7-2.4-10.6-3-3.9-.6-8-.8-12.1-.8-7.2,0-14,.6-18.2,1.1-10.9,1.1-22.6,5.7-31.8,13-4.6,3.6-8.7,8-11.7,12.9-3.1,4.9-5.1,10.4-5.8,16.4-.5,4.4-.7,8.8-.7,13.3,0,6.5.5,13,1.3,19.5.2,1.2.3,2.3.3,3.1s0,1.2-.4,1.7c-.3.4-.7.9-1.8,1.3-.7.3-1.2.7-1.7,1.1-.7.7-1.1,1.5-1.5,2.3-.3.8-.6,1.6-.9,2.2-.7,2-1,4.1-1,6.1s0,2.3.2,3.4c.7,5.4,1.8,10.7,4,15.6,2.2,4.8,5.5,9.2,10.6,12.6.3.2.5.4.7.7.2.2.3.5.3.9,2.2,10.9,7.8,20.1,15.4,27.6,2.3,2.2,3.8,4.4,4.9,6.7,1,2.3,1.5,4.7,1.5,7.4s0,2.6-.3,4c-.8,5.3-2.3,9.8-4.8,13.4-2.5,3.6-6.1,6.2-11.3,7.9-2.9.9-5.9,1.9-8.8,2.8-7.1,2.1-14.3,4.3-21,8.1-3.5,2-6.9,4.2-9.9,6.7l-1.3,1.1,1.2,1.2c8,7.8,16.9,14.6,26.7,20.1,19,10.9,41,17.1,64.5,17.1s46.3-6.5,65.6-17.7c7.7-4.5,14.9-9.7,21.5-15.6l1.1-1-1-1.1v-.5h.1ZM154.1,199.8c0,.4,0,.5-.2.7-.1.2-.4.5-.8.8-9,8.8-17.9,17.5-26.9,26.3-.3.3-.6.5-.7.6h-.6c-.2-.2-.5-.4-.8-.8-8.8-8.7-17.7-17.4-26.6-26.1-.4-.4-.7-.7-.8-1,0-.3-.2-.5-.2-.7,0-.3,0-.6.3-1.1,1.4-3.6,2.7-7.3,3.9-11.1.2-.5.3-.9.4-1.1.2.1.6.3,1,.7,7.1,5.4,14.8,8.2,22.9,8.2s9.2-.9,14-2.6c3.9-1.4,7.3-3.7,10.2-6.6h.1c1.7,4.5,3.2,9.3,4.7,13.7h0c0,.1.1.1.1.1ZM79.6,134.2c0-.5-.3-1-.5-1.6,0-.4-.3-.8-.5-1.2-.3-.6-.9-1.2-1.6-1.6s-1.6-.6-2.5-.6h-.6c-.3,0-.5,0-.8-.2-.4-.2-.8-.5-1.2-1-.4-.5-.8-1.1-1.2-1.7-3.9-6.6-5.9-13.7-6-21.4v-.9c0-.5.2-1,.3-1.4,0-.6.2-1.2.4-1.4,0,0,0-.2.2-.2h.9c.2,0,.5.3.7.7.3.3.6.8.8,1.2,1.8,3,3.4,6,5.7,10l2.2,3.9.6-4.5c.7-5.4,1.3-9.8,1.9-14.2,2-13.2,4.3-26.2,8.1-38.9.7-2.2,1.2-3.8,1.6-4.6.2-.4.4-.6.4-.6h0c.2,0,.7,0,1.6.5l3.4,1.7c10.7,5.5,21.4,8.3,32.1,8.3s23-3.3,34.2-9.9c.7-.4,1.3-.7,1.7-.9.3,0,.5-.2.6-.2,0,0,.2.2.4.6.2.4.4.9.6,1.5,4,10.3,5.8,21.2,7.8,32.2,1.4,8.1,2.6,16.3,3.1,24.9v2.4c.1,0,2.2-1.2,2.2-1.2,1.1-.6,1.8-1.5,2.2-2.2.4-.8.5-1.4.7-1.7,1.3-2.8,2.4-5.6,4.2-7.9.3-.5.7-.9.9-1.1.1,0,.2-.2.3-.2h.4c.2,0,.3,0,.4.2.1,0,.3.3.4.6.1.3.2.7.2,1.1,0,1.5.1,3,.1,4.4s0,1.9-.1,2.9c-.6,5.6-2.5,10.9-5.3,15.9-.6,1.1-1.2,2-1.9,2.6s-1.5.9-2.7.9h-.2c-.8,0-1.6.2-2.2.6-.5.3-.8.7-1.1,1.1-.4.6-.6,1.2-.8,1.8s-.3,1.1-.4,1.5c-2,7.3-4.6,14.3-8.7,20.6-5,7.8-11.3,14.3-19.2,19.2-6,3.7-12.1,5.5-18.2,5.5s-16.8-3.5-24.5-10.4c-10.5-9.6-17.1-21.6-20.9-35.3h0l-.2.3h0Z"/>
        </g>
      </g>
    </g>
  </g>
</svg>