<?xml version="1.0" encoding="UTF-8"?>
<svg xmlns="http://www.w3.org/2000/svg" version="1.1" viewBox="0 0 512 512">
  <defs>
    <style>
      .cls-1 {
        fill: #fff;
        stroke: #000;
        stroke-miterlimit: 10;
      }
    </style>
  </defs>
  <!-- Generator: Adobe Illustrator 28.7.1, SVG Export Plug-In . SVG Version: 1.2.0 Build 142)  -->
  <g>
    <g id="_圖層_1" data-name="圖層_1">
      <circle class="cls-1" cx="255.5" cy="257.5" r="246.5"/>
      <g id="_圖層_2">
        <path id="SOCCER" d="M508.8,251.2c-1.3-80.1-42.5-155.7-107.7-201.6-4.1-2.9-8.3-5.7-12.6-8.3-35-21.8-76.5-34.5-117.6-37.1-18.6-1.2-37.2,0-55.5,3.2-31.1,5.3-59.8,15.5-85.4,30.2-25.7,14.7-48.9,34.5-69,58.7C27.4,136.9,8.3,184.3,4.5,237.4c-4.7,64.3,12.7,122.4,51.7,172.9,19.5,25.3,42.5,46,68.2,61.7,25.6,15.6,54.6,26.6,86.1,32.6,15,2.9,30.3,4.5,45.7,4.5s28.6-1.4,42.7-3.8c71-12.3,135.7-55.7,173.3-117.3,24.7-40.6,37.4-89.2,36.6-136.8h0ZM443.6,116.1c-4.4,0-9.1-.4-13.8-3.7-14.4-10-29.5-19.6-44-28.9-2.4-1.5-4.7-3-7.1-4.5-5.7-3.6-11.5-7.2-17.1-10.7-6.3-3.9-12.9-8-19.3-12.1-1.8-1.2-3.5-3.3-4.2-5.2-1.7-4.9-3.1-10-4.7-15.4-.3-1.1-.6-2.2-.9-3.3,47,16.6,84.4,44,114.3,83.8h-3.2,0ZM333.9,68.7c.9,0,1.6.2,2,.4,30,19,61,38.8,92.3,58.9.6.4,1.3,1.8,1.4,2.9,1.2,15.6,5.5,77.7,5.5,77.7v.9c.1,0,.3.2.3.2h-.1c-.7,1.2-1.4,2.2-2.1,2.6-11.2,6.7-52.2,30.7-61.3,36.1-1.1.7-1.9,1-2.6,1s-1.7-.4-2.9-1.2c-20.5-14.2-42.9-26.8-66.7-37.4-1.5-.7-3-1.3-4.6-2-3.4-1.5-6.9-3-10.2-4.7-1-.5-2.1-1.8-2.2-2.6-1.9-9.9-12.1-65.7-15.7-83.6-1.5-7.4-.2-10.7,6-14.9,15.6-10.5,36.5-23.8,59.4-34.1.3,0,.9-.2,1.5-.2h0ZM265.1,184.9c1.1,6.2,2.3,12.4,3.4,18.7.1.4.2.8.3,1.3v.2c-.4.6-.9,1.2-1.4,1.7-17.5,16.2-33.7,33.3-48,50.9-2.7,3.3-5.4,6.8-8,10.1-2.5,3.2-5,6.5-7.6,9.6-.4.5-1.4,1-1.8,1h0c-10.3-1.5-20.7-3.1-30.8-4.6-17.1-2.6-34.7-5.3-52.1-7.7-3.3-.5-3.9-2.2-4.8-5.3,0-.5-.2-.9-.4-1.3-2.9-9.4-5.7-19-8.5-28.3-3.1-10.7-6.4-21.7-9.7-32.5-1.1-3.5-.7-5.6,1.7-8.8,20.7-27.9,41.9-56.5,64.6-87.5,1.8-2.5,3.4-3.2,6.6-3.2h.8c21.1.7,42.1,5,62.4,9.2,5.6,1.1,11.4,2.3,17,3.4,2.4.5,3,.6,3.3,2.4,4.3,23.5,8.7,47.5,13,70.7h0ZM80,341.1c10.5-18.8,21.8-38.6,34.6-60.7.2-.3,1.1-.7,1.7-.7,20.8,3.1,41.9,6.3,62.3,9.4,7,1.1,14,2.1,21,3.2,1.6.2,2.3.9,3.5,3.2,6.2,11.8,12.9,24.4,20.4,36.8,4.2,6.9,8.7,13.6,13,20.2,3.2,4.8,6.5,9.7,9.6,14.7.5.8.5,2.9,0,3.9-12.6,25.6-25.1,50.6-37.1,74.1-.2.5-1.5,1.1-2.4,1.6-.5.2-1,.5-1.5.8-4.4-.8-8.7-1.5-13-2.3-16.8-3-32.8-5.7-49-8.8-1.2-.2-2.9-1.5-3.9-2.9-19.8-29.7-39.6-59.8-59-89.3-.4-.8-.5-2.6-.2-3.2h0ZM222.6,450c11.2-22.1,22.6-44.8,34.9-69.6,1.1-2.3,2.3-3.1,5.1-3.6,9.8-1.6,19.6-3.6,29.2-5.5,1.7-.3,46.1-10,54.8-12.1.5-.1.9-.2,1.3-.2.8,0,1.4.2,2.5,1.5,15.5,18,31.7,36.6,48.1,55.3,1.3,1.5,1.4,1.9.4,3.4-12.8,20.1-24.7,35.4-37.5,48l-.6.6c-1.1,1.1-2.2,2.2-3.3,2.7-25.7,12.2-52.5,19.4-82,22-.1,0-.2-.1-.3-.1-.6-.2-1.5-.4-2-.8-8.3-6.2-16.7-12.5-24.8-18.6-8.2-6.2-16.7-12.5-25-18.8-1.7-1.4-2-2-.8-4.2h0ZM358.2,344.8c2.9-11.5,5.9-23.9,8.4-36.6,1.7-9.1,3.2-18.3,4.7-27.2.9-5.4,1.8-10.9,2.7-16.3.1-.5.6-1.3,1-1.5,19.3-11.4,39.1-23,58.2-34.2l9-5.3c2.9,3.1,5.7,6.2,8.6,9.3,13.7,15,26.7,29.1,39.8,43.6.7.8,1.2,2.5,1.1,3.8-3.8,37.2-15.8,71.9-35.8,103.2-.6,1-1.7,1.9-2.9,2.6-14.8,7.7-27.1,13.9-38.5,19.6-1.7.9-3.3,1.7-4.1,1.7s-1.8-1.3-3.5-3.3h-.1c-4.3-5.1-8.6-10-13-15-11.4-13.2-23.3-26.8-35-40.1-1-1.5-1.1-2.2-.6-4.3h0ZM64.8,346.8c17.2,25.9,37.5,56.6,58.2,88.2.4.6.5,2.3,0,3.2-1.2,2.8-2.8,5.6-4.4,8.5-.3.6-.7,1.2-1,1.8-22.6-16.8-41.7-36.3-56.7-58-14.9-21.7-26.2-46.2-33.7-73,1.9,1.1,3.7,2.2,5.4,3.4,9.3,6.9,18.7,14.2,28.1,21.4,1.4,1.1,2.8,2.6,4,4.5h.1ZM155.1,88.1c-11.3,15.3-22.8,30.8-33.9,45.9-11.7,15.8-23.8,32.2-35.7,48.3-.7,1-2.1,1.8-2.7,1.9-11.4.1-22.7.1-32.3.1h-20c10.2-30.1,25-56.9,43.9-79.5,18.9-22.6,42.7-42,70.8-57.6l1.8,5.9c1.6,5.3,3.1,10.4,4.6,15.5.4,1.4.8,2.7,1.2,4.1,1,3.4,2,7,3.2,10.4.6,2,.4,3.3-.9,5h0Z"/>
      </g>
    </g>
  </g>
</svg>