<?xml version="1.0" encoding="UTF-8"?>
<svg xmlns="http://www.w3.org/2000/svg" version="1.1" viewBox="0 0 256 256">
  <defs>
    <style>
      .cls-1 {
        fill: #f3b140;
      }
    </style>
  </defs>
  <!-- Generator: Adobe Illustrator 28.7.1, SVG Export Plug-In . SVG Version: 1.2.0 Build 142)  -->
  <g>
    <g id="_圖層_1" data-name="圖層_1">
      <g id="_圖層_1-2" data-name="_圖層_1">
        <g id="_圖層_1-2">
          <g id="_圖層_1-2-2" data-name="_圖層_1-2">
            <path class="cls-1" d="M215.3,216.6c-4.4-5-9.9-8.9-16.4-11.6h0c-7.8-3.5-16-5.2-23.7-8.1-6.9-2.6-11.8-5.9-15-10.3-3.2-4.3-4.7-9.7-4.7-16.5s0-2.5,0-3.8c0-.8.2-1.5.5-2.1s.7-1.2,1.3-1.8c8-8.4,15.1-17.6,18.5-29.1.5-1.7,1-3.2,1.6-4.2.7-1.1,1.5-2,3.1-2.6,1-.4,1.7-1,2.4-1.7s1.2-1.4,1.7-2.1c5.8-7.9,8.1-17.1,8.3-26.5v-.4c0-2.2-.2-4.3-1.2-6.4-.5-1-1.2-2-2.1-2.8-.9-.8-2.1-1.5-3.4-2-.4-.2-.6-.3-.7-.4,0,0-.2-.3-.2-.7v-.7c.4-1.8.5-3.6.7-5.1.9-6.6,1.6-13.3,1.6-20s-.4-9.6-1.3-14.4c-1.4-7.5-4-14.1-8.3-19.3-4.2-5.2-10.3-9.1-18.1-11.2-.8-.2-1.5-.7-2.1-1.3h0c-1.3-1.6-3.1-2.9-5-3.8-3-1.5-6.6-2.4-10.5-3-3.8-.6-7.9-.8-11.9-.8-7.1,0-13.8.6-18,1.1-10.8,1.1-22.3,5.6-31.4,12.8-4.5,3.6-8.6,7.9-11.5,12.7-3.1,4.8-5,10.3-5.7,16.2-.5,4.3-.7,8.7-.7,13.1,0,6.4.5,12.8,1.3,19.2.2,1.2.3,2.3.3,3.1s0,1.2-.4,1.7c-.3.4-.7.9-1.8,1.3-.7.3-1.2.7-1.7,1.1-.7.7-1.1,1.5-1.5,2.3-.3.8-.6,1.6-.9,2.2-.7,2-1,4-1,6s0,2.3.2,3.4c.7,5.3,1.8,10.6,3.9,15.4,2.2,4.7,5.4,9.1,10.5,12.4.3.2.5.4.7.7.2.2.3.5.3.9,2.2,10.8,7.7,19.8,15.2,27.2,2.3,2.2,3.8,4.3,4.8,6.6,1,2.3,1.5,4.6,1.5,7.3s0,2.6-.3,3.9c-.8,5.2-2.3,9.7-4.7,13.2-2.5,3.6-6,6.1-11.2,7.8-2.9.9-5.8,1.9-8.7,2.8-7,2.1-14.1,4.2-20.7,8-3.5,2-6.8,4.1-9.8,6.6l-1.3,1.1,1.2,1.2c7.9,7.7,16.7,14.4,26.3,19.8,18.8,10.8,40.5,16.9,63.7,16.9s45.7-6.4,64.7-17.5c7.6-4.4,14.7-9.6,21.2-15.4l1.1-1-1-1.1v-.5h0ZM153.7,189.6c0,.4,0,.5-.2.7,0,.2-.4.5-.8.8-8.9,8.7-17.7,17.3-26.5,26-.3.3-.6.5-.7.6h-.6c-.2-.2-.5-.4-.8-.8-8.7-8.6-17.5-17.2-26.3-25.8-.4-.4-.7-.7-.8-1,0-.3-.2-.5-.2-.7,0-.3,0-.6.3-1.1,1.4-3.6,2.7-7.2,3.8-11,.2-.5.3-.9.4-1.1.2,0,.6.3,1,.7,7,5.3,14.6,8.1,22.6,8.1s9.1-.9,13.8-2.6c3.8-1.4,7.2-3.7,10.1-6.5h0c1.7,4.4,3.2,9.2,4.6,13.5h0c0,0,0,0,0,0h0ZM80.2,124.9c0-.5-.3-1-.5-1.6,0-.4-.3-.8-.5-1.2-.3-.6-.9-1.2-1.6-1.6s-1.6-.6-2.5-.6h-.6c-.3,0-.5,0-.8-.2-.4-.2-.8-.5-1.2-1-.4-.5-.8-1.1-1.2-1.7-3.8-6.5-5.8-13.5-5.9-21.1v-.9c0-.5.2-1,.3-1.4,0-.6.2-1.2.4-1.4,0,0,0-.2.2-.2h.9c.2,0,.5.3.7.7.3.3.6.8.8,1.2,1.8,3,3.4,5.9,5.6,9.9l2.2,3.8.6-4.4c.7-5.3,1.3-9.7,1.9-14,2-13,4.2-25.9,8-38.4.7-2.2,1.2-3.8,1.6-4.5.2-.4.4-.6.4-.6h0c.2,0,.7,0,1.6.5l3.4,1.7c10.6,5.4,21.1,8.2,31.7,8.2s22.7-3.3,33.8-9.8c.7-.4,1.3-.7,1.7-.9.3,0,.5-.2.6-.2,0,0,.2.2.4.6.2.4.4.9.6,1.5,3.9,10.2,5.7,20.9,7.7,31.8,1.4,8,2.6,16.1,3.1,24.6v2.4c0,0,2.2-1.2,2.2-1.2,1.1-.6,1.8-1.5,2.2-2.2.4-.8.5-1.4.7-1.7,1.3-2.8,2.4-5.5,4.1-7.8.3-.5.7-.9.9-1.1,0,0,.2-.2.3-.2h.4c.2,0,.3,0,.4.2,0,0,.3.3.4.6,0,.3.2.7.2,1.1,0,1.5,0,3,0,4.3s0,1.9,0,2.9c-.6,5.5-2.5,10.8-5.2,15.7-.6,1.1-1.2,2-1.9,2.6s-1.5.9-2.7.9h-.2c-.8,0-1.6.2-2.2.6-.5.3-.8.7-1.1,1.1-.4.6-.6,1.2-.8,1.8s-.3,1.1-.4,1.5c-2,7.2-4.5,14.1-8.6,20.3-4.9,7.7-11.2,14.1-18.9,18.9-5.9,3.7-11.9,5.4-18,5.4s-16.6-3.5-24.2-10.3c-10.4-9.5-16.9-21.3-20.6-34.8h0l-.2.3h0Z"/>
          </g>
        </g>
      </g>
    </g>
  </g>
</svg>