<?xml version="1.0" encoding="UTF-8"?>
<svg xmlns="http://www.w3.org/2000/svg" version="1.1" viewBox="0 0 256 256">
  <defs>
    <style>
      .cls-1 {
        fill: #004734;
      }

      .cls-2 {
        fill: #c30d23;
      }

      .cls-3 {
        fill: #094;
      }

      .cls-4 {
        display: none;
      }
    </style>
  </defs>
  <!-- Generator: Adobe Illustrator 28.7.1, SVG Export Plug-In . SVG Version: 1.2.0 Build 142)  -->
  <g>
    <g id="_圖層_1" data-name="圖層_1">
      <g>
        <g id="_圖層_1-2" data-name="_圖層_1" class="cls-4">
          <g>
            <polygon class="cls-3" points="68.9 0 0 106.4 19.9 119.3 57.1 61.9 57.1 256 80.8 256 80.8 61.2 118.9 118.9 138.7 105.8 68.9 0"/>
            <polygon class="cls-2" points="187.1 256 256 149.6 236.1 136.7 198.9 194.1 198.9 0 175.2 0 175.2 194.8 137.1 137.1 117.3 150.2 187.1 256"/>
          </g>
        </g>
        <g id="_圖層_2">
          <g>
            <path class="cls-1" d="M57.8,7.6L4,90.7c-3.6,5.6-2,13.1,3.6,16.8h0c5.6,3.6,13.1,2,16.8-3.6l31.5-48.6v186.6c0,6.7,5.4,12.1,12.1,12.1h0c6.7,0,12.1-5.4,12.1-12.1V54.6l32.3,48.9c3.7,5.6,11.2,7.1,16.8,3.4h0c5.6-3.7,7.1-11.2,3.4-16.8L78.1,7.5c-4.8-7.3-15.6-7.3-20.3,0h0Z"/>
            <path class="cls-2" d="M198.2,248.4l53.8-83.2c3.6-5.6,2-13.1-3.6-16.8h0c-5.6-3.6-13.1-2-16.8,3.6l-31.5,48.6V14.2c0-6.7-5.4-12.1-12.1-12.1h0c-6.7,0-12.1,5.4-12.1,12.1v187.3l-32.3-48.9c-3.7-5.6-11.2-7.1-16.8-3.4h0c-5.6,3.7-7.1,11.2-3.4,16.8l54.6,82.7c4.8,7.3,15.6,7.3,20.3,0v-.3Z"/>
          </g>
        </g>
      </g>
    </g>
  </g>
</svg>