<?xml version="1.0" encoding="UTF-8"?>
<svg xmlns="http://www.w3.org/2000/svg" version="1.1" viewBox="0 0 512 512">
  <defs>
    <style>
      .cls-1 {
        fill: #fff;
      }
    </style>
  </defs>
  <!-- Generator: Adobe Illustrator 28.7.1, SVG Export Plug-In . SVG Version: 1.2.0 Build 142)  -->
  <g>
    <g id="_圖層_2" data-name="圖層_2">
      <g id="_圖層_2-2" data-name="_圖層_2">
        <path class="cls-1" d="M500.2,23.3h-116.9c-6.9,0-11.1,2.4-14.8,8-48.1,68.8-96.5,137.4-144.6,206.2-5.4,7.6-10.7,11.6-20.5,11.4-24.4-.7-49.1,0-73.4-.4-4.1,0-10,2-11.8-1.5-2.4-4.3,3-8,5.6-11.4,47.4-67.5,94.7-135,142-202.3,1.7-2.4,5.2-4.8,3.7-7.8-1.7-3.7-5.9-2-9.1-2h-103.4c-6.7,0-11.1,2-15,7.6-40.7,59.2-81.7,118.2-122.8,177.3-19.2,27.6-18.4,55.5,2.3,81.9,8.9,11.4,18.3,22.6,26.7,34.2,4.6,6.5,8.7,7.2,15.7,3.5,45.3-23.5,91-46.4,136.5-69.6,2.8-1.3,5.4-3.7,10-2.8-3.9,5.8-7.2,10.7-10.7,15.5-20.3,29.3-41.2,58.1-61.2,87.7-20.2,29.6-19.2,54.7,2.6,83.4,10.9,14.4,22.8,28.3,33.3,42.9,5,6.9,9.1,7.6,16.4,3.7,55.3-28.5,110.8-56.6,166.3-84.9,2-1.1,4.8-1.3,5.8-5.2h-114.4c3.2-4.8,4.8-7.6,6.7-10.2,83.4-118.5,166.7-237.1,250.1-355.9,1.7-2.4,5.2-4.6,3.5-7.8-1.7-3.2-5.6-1.7-8.4-1.7h0v-.2.2l-.2.2Z"/>
      </g>
    </g>
  </g>
</svg>