<?xml version="1.0" encoding="UTF-8"?>
<svg xmlns="http://www.w3.org/2000/svg" version="1.1" viewBox="0 0 424.1 448.1">
  <defs>
    <style>
      .cls-1 {
        fill: #fff;
      }
    </style>
  </defs>
  <!-- Generator: Adobe Illustrator 28.7.1, SVG Export Plug-In . SVG Version: 1.2.0 Build 142)  -->
  <g>
    <g id="_圖層_1" data-name="圖層_1">
      <g>
        <polygon class="cls-1" points="86.2 290.5 89.7 298.3 81.8 294.9 79.6 297.1 87.6 305.1 89 303.6 82.8 297.4 82.8 297.4 91.4 301.2 92.5 300.1 88.7 291.5 88.7 291.5 94.9 297.7 96.4 296.3 88.4 288.3 86.2 290.5"/>
        <polygon class="cls-1" points="79.2 300 78 298.8 71.6 305.2 72.8 306.4 75.2 304 82 310.7 83.5 309.1 76.8 302.4 79.2 300"/>
        <polygon class="cls-1" points="161 160.2 156 144.7 150.9 160.2 134.6 160.2 147.8 169.8 142.8 185.3 156 175.7 169.1 185.3 164.1 169.8 177.3 160.2 161 160.2"/>
        <polygon class="cls-1" points="80.1 175.7 93.3 185.3 88.3 169.8 101.4 160.2 85.1 160.2 80.1 144.7 75.1 160.2 58.8 160.2 72 169.8 66.9 185.3 80.1 175.7"/>
        <polygon class="cls-1" points="123.1 210.6 118 195.1 113 210.6 96.7 210.6 109.9 220.2 104.9 235.7 118 226.1 131.2 235.7 126.2 220.2 139.4 210.6 123.1 210.6"/>
        <path class="cls-1" d="M73.8,109.1c.3,1,1.2,1.6,2.2,1.5h8.2c1,0,1.9-.6,2.3-1.5l14.9-34h.5v45.4s0,0,0,.1c0,.6.6,1.1,1.2,1.1h13.4s0,0,.1,0c.6,0,1.1-.6,1-1.2V42.2s0,0,0-.1c0-.6-.6-1.1-1.2-1h-13.9c-.8,0-1.6.4-1.9,1.2l-20,46h-.5l-20.4-46c-.3-.8-1.1-1.3-1.9-1.2h-14.1s0,0-.1,0c-.6,0-1.1.6-1.1,1.2v78.3s0,0,0,.1c0,.6.6,1.1,1.2,1.1h13.4s0,0,.1,0c.6,0,1.1-.6,1.1-1.2v-45.4h.5l14.9,34Z"/>
        <path class="cls-1" d="M183.4,107.3c0-.6-.4-1.2-1.1-1.2,0,0,0,0-.1,0h-35.6c-.3,0-.7-.2-.7-.5,0,0,0-.1,0-.2v-63.2c0-.6-.4-1.1-1-1.2,0,0,0,0-.1,0h-15.1c-.6,0-1.1.4-1.2,1,0,0,0,0,0,.1v78.3c0,.6.4,1.2,1.1,1.2,0,0,0,0,.1,0h52.5c.6,0,1.2-.4,1.2-1.1,0,0,0,0,0-.1v-13.2Z"/>
        <path class="cls-1" d="M227.2,73.2l-4.3-.6c-9.2-1.3-12.6-4.3-12.6-8.9s3.7-8.8,10.8-8.8,12.6,2.1,18.7,6.2c.5.4,1.3.2,1.6-.3,0,0,0,0,0,0l7.2-10.8c.6-.8.5-1.3-.2-1.8-6.8-5.2-16.7-8.4-27.4-8.4-17.4,0-28.6,9.8-28.6,24.7s9.1,21.9,25.5,24.2l4.3.6c9.6,1.3,12.4,4.3,12.4,9s-4.7,9.6-13.2,9.6-15.8-4-21.1-8.3c-.5-.5-1.2-.5-1.7,0,0,0,0,0,0,.1l-9,10.3c-.5.6-.5,1.5.1,2,6.3,6,18.5,11,31.1,11,20.9,0,31.7-10.8,31.7-25.4s-8.8-22.2-25.4-24.4Z"/>
        <path class="cls-1" d="M418.6,13V3.7H5.5v9.3s0,156.1,0,157c0,62.2,20.2,122.6,57.7,172.2.6.8,1.2,1.5,1.8,2.3l-54.2,54.2,13.1,13.1,53-53c15.1,17.1,32.2,32.4,50.9,45.5,24.9,17.4,52.5,30.7,81.6,39.4l2.6.8,2.6-.8c29.1-8.7,56.7-22,81.6-39.4,24.6-17.2,46.4-38.1,64.6-62.1,37.6-49.5,57.8-110,57.7-172.2,0-.9,0-157,0-157ZM78.2,331.2c0,0-.1-.2-.2-.3-35.1-46.3-54.1-102.9-54-161,0-.8,0-114.2,0-147.7h363.1L78.2,331.2ZM385.8,256.4c-9.2,26.8-22.6,52-39.7,74.6-17,22.4-37.3,42-60.4,58.1-22.5,15.7-47.4,27.9-73.7,36-26.3-8.1-51.1-20.3-73.7-36-17.8-12.4-34.1-27-48.4-43.4L400.1,35.6c0,43.3,0,133.7,0,134.4,0,29.4-4.8,58.6-14.3,86.4Z"/>
      </g>
    </g>
  </g>
</svg>