<?xml version="1.0" encoding="UTF-8"?>
<svg xmlns="http://www.w3.org/2000/svg" version="1.1" viewBox="0 0 512 512">
  <defs>
    <style>
      .cls-1 {
        fill: #fff;
      }
    </style>
  </defs>
  <!-- Generator: Adobe Illustrator 28.7.1, SVG Export Plug-In . SVG Version: 1.2.0 Build 142)  -->
  <g>
    <g id="_圖層_2" data-name="圖層_2">
      <g id="_德國甲級聯賽">
        <path class="cls-1" d="M503.1,54.5c3.3,0,4.9,1.7,4.9,5v392.9c0,3.4-1.7,5.1-5.2,5.1H6.5c-1.4,0-2.2-.7-2.3-2.2V57.9c-.2-2.6,1-3.4,3.5-3.4h495.4ZM136.3,146.3c-1.8,1.7-3.4,2.2-4.9,2.6-6.1,1.4-8.9,5.4-10.6,11.2-4.4,14.7-7.3,29.7-9.5,44.9-.8,5.5-1.4,10.9-1.4,16.4s-1.7,5.2,2.8,4.2c.9-.2.8.9.8,1.6-1,9.8-.3,19.6.9,29.4,1.7,13.9,4.5,27.7,8.6,41.1.5,1.7,1.3,2.8,3.2,3,1.2.1,2.3.6,2.6,2.1,2.3,9.8,6.1,19.1,10,28.3.6,1.4.7,2.4-1.2,2.8-5.8,1-10.7,3.9-15.4,7.2-10.6,7.4-19.9,16.5-29.4,25.3-8.2,7.6-14.6,8.5-24.6,3.4-3.9-2-9.4-1.9-11.3,1.7-1.7,3.2-4.2,6.6-4.4,10.6,0,1.2-.2,2.2-.8,3.1-3.7,4.8-7.1,9.8-11.4,14.2-1,1-1.4,2.2-.9,3.6.8,2.4.3,4.5-1.3,6.4-.9,1.1-1.2,2.5-.5,3.3,1.7,2.1,1.4,4.5,1.4,6.9s.9,3.7,3,4.2c2.3.6,4.3.2,5.6-2.2,4.3-8,10.8-14.1,18.2-19.2,10.9-7.5,23.1-12.4,35.4-17.1,17.1-6.5,34.6-12.1,51.3-19.8.9-.4,2.5-.6,2.4-1.6-.3-3,2.2-3.3,3.8-4.3,2.9-1.8,5.9-3.5,8.8-5.2,6.8-3.9,9.3-9.9,8.9-17.4-.7-11.2-.7-22.4-2.1-33.6-.2-1.4,0-2.6,1.6-3.1,1.5-.4,1.7-1.3,1.5-2.7-1-8.2-1.9-16.5-2.7-24.8-.2-1.7-.9-2.7-2.4-3.5-2.3-1.2-4.9-2-7.1-3.9,1.4-.8,2.6-.5,3.8-.5h59.2c1.3,0,3.1.6,3.7-1.1.8-1.9,2.2-2,3.9-2,12.9.3,25.8.5,38.8.7,3.6,0,7,1.1,9.9,3.2,9.4,6.9,20.3,7.1,31.1,6.6,13.9-.5,27.6-.3,41.3,2.2,2.7.5,4.1,1.9,4.4,4.5.3,2,.5,4,.9,5.9,1,4.6,3.8,6.5,8.4,5.7.8-.1,1.5-.2,2.3.2,1.8.7,3.2.1,3.8-1.7.6-1.7,1.5-2.2,3.2-1.4,1.4.7,3.1,0,3.3-1.1.6-2.6,2.8-3,4.5-3.8,4.1-1.9,8.2-3.8,12.3-5.6,1.9-.9,4.3-1,6-1.6,3.1-1,5.9-3.1,9.2-4.2.8-.3.8-2,1.8-2.8,2.2-1.7,2.1-3.5-.1-5.4-1.2-1-2.7-1.2-4.2-1.3-7.8-.4-15.6-.5-23.4-1.4-19.9-2.2-38.7-8.1-57.1-15.9-11.7-5-22.6-12.6-36.3-12.4-3.4,0-6.9-.9-10.4-1.1-3.1-.2-6.3.2-9.2-1.1-11.1-4.8-22.7-7.9-34.6-9.8-2-.3-3.6-.9-4.1-3.1-.4-1.5-1.8-1.7-3.1-1.9-18.5-2.5-36.8-5.4-55.4-7.4-2.5-.3-3.4-1.1-2.9-3.8,3.3-16.6,9.4-32.3,16.4-47.6q3-6.5,10.1-5.6c4.5.5,7.7-1.3,9.5-5.4,1.6-3.6,2.9-7.4,6.2-9.8,2.4-1.7,2.7-3.6,2.3-6.2-.8-5.4-1-10.8,1.4-15.9,2-4.2,1.1-8-1.2-11.7-4.2-6.5-10.2-10.7-17.5-13-8.3-2.6-16.3-1.9-23.3,3.8-6.1,4.9-8.2,11.9-9.1,19.3-.6,5-.7,5-5.7,4-19.6-3.7-39.3-2.1-59-.5-1.5,0-2.3,1-2.6,2.4-.3,1.4-1.1,2.4-2.7,2.2-5.1-.5-8.3,2.3-11.5,5.8-10.6,12.2-20.7,24.7-30.6,37.5-1,1.3-2,2.7-3.9,3-3.4.4-6,2.4-7.9,5-2.6,3.7-6.1,6-10.2,7.6-1.6.6-4.5.9-3.7,3.4.9,2.6,3.5,1.2,5.2.8,2.2-.5,4.2-1.6,7-2.7-2.5,4.1-5.7,6.1-8.8,8.2-1,.7-2.6,1.3-2.2,2.9.4,1.7,2,2.1,3.6,2.2,5,.5,9.9-.6,14.2-3.1,4.8-2.9,9.6-5.9,10.8-12.2.4-2.2,2.1-3.6,3.7-5,11.2-9.6,22.4-19.2,33.5-28.8,1-.9,2.1-1.5,3.5-1.4,7.9.6,15.8,1.2,23.7,1.8,2.7.2,5.5.5,8.8.8v.5ZM479.1,225.6c0-15.5-12.1-27.6-27.6-27.6s-27.5,12.5-27.5,27.6,12.3,27.5,27.5,27.5,27.7-11.9,27.7-27.5h-.1Z"/>
      </g>
    </g>
  </g>
</svg>