<?xml version="1.0" encoding="UTF-8"?>
<svg xmlns="http://www.w3.org/2000/svg" version="1.1" viewBox="0 0 512 512">
  <defs>
    <style>
      .cls-1 {
        fill: #fff;
      }

      .cls-2 {
        display: none;
      }
    </style>
  </defs>
  <!-- Generator: Adobe Illustrator 28.7.1, SVG Export Plug-In . SVG Version: 1.2.0 Build 142)  -->
  <g>
    <g id="_圖層_1" data-name="圖層_1">
      <g>
        <g id="FIFA" class="cls-2">
          <path class="cls-1" d="M253.3,0C113.1.2-2.7,113.1-2.5,256.5c0,143,116.2,256,256,255.6,139.1.5,256-111.9,256-255.9S393.3,0,253.3,0ZM154.7,196.3c-2.5,6.6-5,13.2-7.4,19.9-.9,2.6-2.4,3.4-5,3.4-13.3-.1-26.7,0-40,0s-3.9.4-3.9,3.8v19c0,3.5.2,3.7,3.9,3.7h31.3c3.5,0,3.6.2,2.4,3.5-2.7,7-5.5,13.9-8.1,20.9-.8,2.1-2,3.1-4.4,3-7.1-.1-14.2,0-21.2,0s-3.9.5-3.9,3.9v38.6c0,3.7-.2,3.9-3.7,3.9h-33c-2.5,0-3.4-.8-3.4-3.4v-120.3c0-3.8,0-3.9,3.9-3.9h89.8q4.2,0,2.7,4h0ZM205.2,319.9c-10.8-.1-21.6,0-32.4,0s-3.6-.1-3.6-3.6v-60.4h0v-59.6c0-3.7.2-3.8,3.8-3.8h32.2c3.4,0,3.6.2,3.6,3.7v120.3c0,2.7-.9,3.5-3.6,3.5h0ZM314.3,249.6c-2.8,7.3-5.8,14.6-8.6,21.9-.6,1.6-1.6,2.2-3.4,2.2-7.2-.1-14.4-.2-21.5-.2s-4.2.5-4.2,4.2c0,12.5.2,25,.3,37.5q0,4.7-4.7,4.7h-31.6c-3.6,0-3.8-.2-3.8-3.9v-119.5c0-4,.1-4.2,4-4.2h89.5c4.1,0,4.2.3,2.8,4.2-2.5,6.6-5.1,13.2-7.4,19.9-.9,2.4-2.2,3.3-4.8,3.2h-40.3c-3.5,0-4.1.4-4.1,4,0,6.4-.2,12.9.2,19.3.1,2.4,1,3.2,3.4,3.2h31.6c3.8,0,3.9,0,2.6,3.5h0ZM445,319.8h-33c-2,0-3.1-.6-3.6-2.6-1.1-4-2.5-7.8-3.5-11.8-.5-1.9-1.6-2.9-3.5-2.9h-40.5c-2,0-2.7,1.3-3.2,3-1.1,3.9-2.3,7.9-3.4,11.8-.5,1.9-1.5,2.5-3.4,2.5h-32.7c-2.2,0-2.5-.7-1.8-2.7,11.4-31.6,22.8-63.1,34.2-94.7,3.2-8.9,6.5-17.9,9.6-26.9.8-2.4,2.2-3.3,4.7-3.2,5.7.2,11.4,0,17.1,0h17.3c2.3,0,3.5.8,4.3,3,11.6,32.4,23.3,64.8,34.9,97.1,2.9,8,5.8,16,8.7,23.9,1.1,3.2,1,3.4-2.2,3.4h0Z"/>
          <path class="cls-1" d="M392.3,261.1c-3.3-11-6.6-22-9.9-32.9-.2-.7-.2-1.8-1-1.8s-1,1.1-1.2,1.9c-1,3.3-2,6.6-2.9,9.9-3.5,11.9-6.9,23.8-10.4,35.7-1.3,4.4-1,4.7,3.7,4.7h23.2c3.7,0,3.8,0,2.8-3.5-1.4-4.6-2.7-9.3-4.1-13.9h-.2Z"/>
        </g>
        <g id="NBA" class="cls-2">
          <g>
            <path class="cls-1" d="M360.9,291.2v-8.6c0-.8.3-1.7-.7-2.1s-1.8.2-2.3,1c-1.2,1.6-2.2,3.2-3.4,4.7-13.9,17.8-35.6,20.4-52.9,7.9-19.8-14.3-21.8-44.8-.7-61.6,2.7-2.2,5.8-3.7,8.8-5.2,2.3-1.2,3.1-2.9,2.1-5.6-2-5.6-4.1-11.3-7.4-16.2-8.6-12.9-11.9-27.2-13.9-42.2-.7-5.7-2.1-11.4-4.4-16.9-1.1-2.7-2.5-3.2-5-1.7-3.3,2-6.4,4.4-9.1,7.2-2.8,2.9-6,5.5-6.9,9.6-1.8,7.7-3.6,15.3-6.3,22.7-1,2.6-.8,5.2,1.3,7.4,3.6,3.8,5.7,8.6,7.8,13.3,4.3,9.7,6,20.3,9.6,30.3,1.4,3.8,2,7.4-1,10.9-1.1,1.2-.4,3.1.2,4.6.8,2.2,1.9,4.4,2.4,6.8,1.3,6.5,2.9,12.9,3.8,19.5,1.3,8.9,2.9,17.8,4.1,26.7.8,5.7,2,11.2,5.3,16.1,2.8,4.1,5.3,8.3,7.3,12.8,7.5,16.3,10.4,33.8,14.1,51,1.7,7.8,2.8,15.6,8.8,21.8,4.9,5.2,4.5,12,3,18.5-.9,3.8-2.8,7.3-3.7,11-1.3,5,0,10,2.1,14.7,3,6.7,6.3,13.3,5.3,21-.1.9.3,2.1.7,2.9,5.7,10.8,4.7,22.1,2.2,33.4-.2,1-1.2,1.9-.3,2.8.9.9,2.2.5,3.3,0,6.4-2.3,11.9-5.8,16.5-10.8,7.9-8.6,10.1-19.1,10-30.5-.5-59.2.4-118.3-.6-177.5v.3Z"/>
            <path class="cls-1" d="M310.8,484.4c.6-7.6,2.6-15.1.7-22.8-.8-3-1.7-6.2-1.7-9.4,0-5-1.8-9.3-4.4-13.5-5.5-9-8.5-18.9-9.9-29.3-.4-3-1.3-5.4-3.8-7.3-11.7-9.4-23.5-18.6-34.5-28.8-10.5-9.8-20.4-20.4-29.9-31.2-12.1-13.7-22.4-28.6-30.6-45-2-3.9-4.6-5.3-8.5-5.4h-2.4c-2.4.2-3.8-1-4.8-3.1-4.7-10-9.3-20.1-14.4-30-6.3-12.3-8.8-25-5.3-38.7,2-8,4.9-15.7,7.1-23.6,1.4-5.1,1.1-5.4-4.1-5.5-10.1-.2-14.9-5.3-15.2-15.4-.3-9.4,3.4-17.6,7.1-25.8,6.2-13.5,13-26.8,18.5-40.6,4.5-11.4,9.7-21.9,19.6-29.6,3.6-2.8,7.1-6.3,12-5.9,5.9.5,11.8.4,17.4-.5,13.1-1.9,16.6-5.4,18.2-18.3.3-2.4.6-5-.8-7.4-3.1-5.1-2.6-10.2.3-15.2,1-1.8,2.1-3.6,2.4-5.7,1.2-8.5,1.9-17.2,9.6-23,1-.8.6-2-.6-2.4-.9-.3-2-.4-3-.5C227.4.2,204.9,0,182.5-.2c-4.6,0-9.1,1-13.3,2.9-15.5,6.9-23.1,19.1-23.6,35.9-.2,8,0,16,0,24v408.3c0,3.9.3,7.7,1.2,11.6,3.3,15.9,17.5,28.1,33.5,29.2,6.9.5,13.7-.1,20.6,0,22.4.2,44.9-.4,67.3.4,13.6.4,27.2.4,40.8-.4,3.6-.2,4.1-.9,3.2-4.5-1.7-7.5-2-15.1-1.4-22.8h0ZM212.2,478.8c0,4.2-.4,4.6-4.5,4.5-12.4-.1-9.4,1.6-13.3-9.5-2.7-7.6-5-15.4-7.4-23.2-.4-1.1-.5-2.5-1.9-2.5s-1.6,1.7-1.6,2.9v27.1c0,4.9-.2,5.1-4.9,5.1s-7.2-2.4-7.2-7.3v-50.4c0-4.5.3-4.7,4.6-4.7,9.3-.1,9.4-.2,12.5,8.6,2.6,7.5,4.8,15.2,7.2,22.9.2.7.3,1.3.6,2,.4.9.9,2.1,2.2,1.7,1.1-.3,1-1.4,1-2.3,0-5.4,0-10.8.1-16.1v-13.4c0-2.3.9-3.4,3.3-3.3,9.3.3,9.2-2,9.5,8.9.4,16.4.1,32.7,0,49.1h-.2ZM247,480.1c-4.3,3.5-9.6,4-15,3.7-4.2-.2-8.4-.9-12.6-1.2-1.9-.1-2.5-1-2.5-2.8,0-9.3-1-18.5-.3-27.8-.6-9.3.5-18.5.4-27.8,0-2.5.9-3.5,3.4-3.5,6.9.1,13.7-.3,20.5,1.3,5.8,1.4,9.6,5.5,9.8,11.5.2,5.7,0,11.2-4.6,15.6-1,1-.9,2,.5,2.8,9.9,5.9,7.5,22.3.3,28.2h.1ZM293.4,483c-3.4.5-6.9.9-10.2-.3-1.6-.6-1.5-2.3-1.6-3.8-.4-6.7-3.9-9.1-10.2-7-2.7.9-3.3,3.2-3.5,5.7-.3,5.5-.5,5.6-6.1,5.6s-7.1,0-6-7c2.3-15,5.7-29.8,8.3-44.8.5-2.7,1.3-5.3,2-8,.5-1.8,1.8-2.6,3.6-2.7h5.8c8,0,8.7-1.1,10.3,8.4,2.6,14.9,5.4,29.8,7.6,44.9.3,2,.9,4,1.2,6,.2,1.1.2,2.6-1.2,2.9h0Z"/>
            <path class="cls-1" d="M270.7,79c10.7,7.7,21.3,15.4,32,23.2,2.1,1.5,3.7,3.4,4.7,5.8,2.9,6.8,3.8,14.1,5.2,21.2,2,10.2,3.1,20.5,4.1,30.9.8,7.7,1.2,15.5,4.6,22.7,6,12.8,11.2,26,14.1,40,.5,2.4,1.5,3.8,3.7,4.9,7.5,3.6,13.2,9.3,18,16,.7.9,1.1,2.4,2.4,2,1.7-.4,1-2.1,1.1-3.2.1-1.1,0-2.3,0-3.4V100.4c0-20.4.2-40.7.5-61.1.2-13.1-5.2-24.1-16.1-32.1-7.8-5.7-16.5-7.5-23.1-6.9-13.6.6-24.3,1-35,1.5-1.9,0-4.4-.9-5.4,1.1-1,2,1.4,3.4,2.5,4.9,5,6.5,8.1,13.4,7.3,21.9-.4,4.1-2,7.7-3.4,11.4-.4,1.1-1,2.2-.4,3.3,1.6,2.7.6,5-1.3,6.8-6.5,6.3-9.2,15.5-16.4,21.3-3.3,2.7-2.6,4.1.9,6.7v-.2Z"/>
            <path class="cls-1" d="M232.1,455.3c-2.2.4-2.3,2.4-2.5,4-.2,1.5,0,3,0,4.3-.6,3,.7,5.8.3,8.6-.1,1.1.4,1.8,1.4,2.1,2.5.6,5.1.6,6.9-1.7,2.9-3.8,2.7-11.9-.4-15.5-1.5-1.7-3.4-2.3-5.6-1.9h0Z"/>
            <path class="cls-1" d="M232.5,445.6c3.1.4,5.3-.9,6.4-3.9,1.2-3.1.8-6.1-.5-9-1.3-2.8-3.8-3.4-6.6-3-2.7.4-2.3,2.6-2.4,4.5v2.7h0v3.4c.2,2.2-.1,4.8,3.1,5.2h0Z"/>
            <path class="cls-1" d="M276.7,436.3c-.2-1.3,0-3.2-1.9-3.2s-1.7,2.1-1.7,3.3c0,6.2-1.8,12.2-1.9,18.3v4.1c0,3.3,1.1,4,4.9,3.9,3.2,0,3.9-1.8,3.5-4.5-1-7.3-1.9-14.7-2.9-22h0Z"/>
          </g>
        </g>
        <g id="_西班牙甲級聯賽" class="cls-2">
          <g>
            <path class="cls-1" d="M49.7,418.1c-6,.2-12.1,0-18.1,0s-7.9-2.6-7.9-7.7v-53.9c0-4.4-1.5-6.3-6-6-4.2.2-8.5,0-12.7,0v71.5c2.1,2.9,4.3,5.8,6.2,8.8,2.5,4.1,6,5.4,10.7,5.1,7-.4,14,0,21.1-.1,14.1-.2,12.1,2.1,12.4-12.6,0-4.2-1.7-5.4-5.6-5.3v.2Z"/>
            <path class="cls-1" d="M386.6,64.4c-21.1,0-42.1,0-63.2,0-3.7,0-6,1.3-8,4.3-26,37.2-52.2,74.3-78.2,111.5-2.9,4.1-5.8,6.3-11.1,6.2-13.2-.4-26.5,0-39.7-.2-2.2,0-5.4,1.1-6.4-.8-1.3-2.3,1.6-4.3,3-6.2,25.6-36.5,51.2-73,76.8-109.4.9-1.3,2.8-2.6,2-4.2-.9-2-3.2-1.1-4.9-1.1-18.6,0-37.2,0-55.9,0-3.6,0-6,1.1-8.1,4.1-22,32-44.2,63.9-66.4,95.9-10.3,14.9-9.9,30,1.3,44.3,4.8,6.2,9.9,12.2,14.4,18.5,2.5,3.5,4.7,3.9,8.5,1.9,24.5-12.7,49.2-25.1,73.8-37.6,1.5-.7,2.9-2,5.4-1.5-2.1,3.1-3.9,5.8-5.8,8.4-11,15.8-22.3,31.4-33.1,47.4-10.9,16-10.4,29.6,1.4,45.1,5.9,7.8,12.3,15.3,18,23.2,2.7,3.7,4.9,4.1,8.9,2,29.9-15.4,59.9-30.6,89.9-45.9,1.1-.6,2.6-.7,3.1-2.8h-61.9c1.7-2.6,2.6-4.1,3.6-5.5,45.1-64.1,90.1-128.2,135.2-192.4.9-1.3,2.8-2.5,1.9-4.2-.9-1.7-3-.9-4.5-.9h0Z"/>
            <path class="cls-1" d="M452.4,338.7c-29.9,0-54.6,24.7-54.6,54.6s24.3,54.4,54.5,54.5c30.4,0,54.6-23.9,54.7-54.2,0-30.5-24.3-54.9-54.6-54.9ZM430.4,367.9c1.4-2.4,3.1-3.5,5.9-3.4,5.7.1,11.4,0,17.1.1,1.6,0,4.7-1.3,4.7,1.3s-1.8,4.9-5.1,4.9h-21.1c-2.4,0-2.8-.9-1.6-3h0ZM485,396.9c-1,1.2-2.7.7-4.2.5-1.2-.2-2.2-.9-2.7-1.9-2-4.3-5.5-5-9.8-4.7-1.3,0-3.4.6-3.7-1.3-.2-1.6,1.1-3,2.5-3.9,1.1-.7,3.5-.4,2.6-2.7-.7-1.8-1.8-3.6-3.2-4.8-1.4-1.2-2.2.7-2.9,1.7-3,4.7-6,9.3-8.9,14-1.6,2.6-3.5,3.9-6.7,3.9-8.3-.2-16.6-.1-25,0-4.1,0-4.6-1.4-2.4-4.6,1.3-1.9,2.5-3.8,3.7-5.8s1.2-2.1-.2-2.9c-1.1-.6-3.4-.3-2.3-2.7.8-1.8,2.1-3.4,4.4-3.4h9.8c2.8,0,5.5-.1,8.3,0,1.2,0,3-.6,3.4,1,.5,1.7-1,3-2.3,4-1.6,1.1-3.5.6-5.2.7-1.6,0-3.3,0-4.9.3-3,.8-5.1,3.4-4.9,6,.2,2.9,3.4,1.2,5.3,1.6,9.4,1.8,15.8-1.7,19.7-10.5,2-4.6,5.4-8.5,8-12.8,1.8-3,3.1-2.6,4.8.1,5.1,8.3,10.4,16.6,15.6,24.9.6,1,2.1,2.2,1,3.4h.2Z"/>
            <path class="cls-1" d="M273.4,386.8h-1.5c-6.3,0-9.4,3.1-9.4,9.2s-.6,8.9,8,8.6c3.7-.1,5,1.5,4.7,5-.1,1.3,0,2.6,0,3.9,0,3.8-1.8,5.7-5.7,5.6-5.1,0-10.1-.1-15.2,0-3.7,0-5.4-1.6-5.3-5.3v-40.7c0-3.8,1.6-5.8,5.6-5.7h14.7c3.4,0,5.7,1.3,5.9,5,.1,2.5,1.4,3.5,3.8,3.5h11.3c2.9,0,3.9-1.5,3.6-4.5-1.1-10.3-7.2-17.6-17.2-20.2-7.2-1.8-14.5-2.3-21.9-1.3-16.4,2.1-23.2,9.1-24.6,25.6-1.1,13.2-1,26.4.3,39.6,1,10.2,7.9,17.8,17.7,20.5,5.8,1.6,11.7,1.3,17.5,1.2,18.6-.1,28.5-10.4,28.6-29.1,0-8.1-4.7-13.3-9.3-18.8-3.2-3.8-7.6-1.8-11.5-2.2h-.1Z"/>
            <path class="cls-1" d="M131,423.1c-6-21.9-12-43.7-18-65.5-1.3-4.6-4.3-6.8-8.9-6.9-5.4-.1-10.8,0-16.1,0s-4.2.9-5,3.7c-6.3,23.1-13,46.1-19,69.3-2.8,10.9-1.1,12.2,9.9,12.5,5,.1,7.1-1.7,7.8-6.4.5-3,.9-6.2,4.2-7.8,6.5-3.1,12.9-6.4,19.2-9.7,2.8-1.5,3.8-.3,4.4,2.3,1.1,4.6,2.2,9.2,3.4,13.8,1.3,5.1,4.7,7.7,10,7.7s8.2-3,8.5-9c0-1.3-.2-2.6-.5-3.9h0ZM104.6,406.3h-14.2c-1.7,0-2.4-.9-2-2.5,2.8-11.5,5.5-23,8.3-34.4.6,0,1.2,0,1.8.1,2.8,11.3,5.5,22.7,8.3,34,.4,1.8-.2,2.8-2.2,2.8h0Z"/>
            <path class="cls-1" d="M350.3,365.2c-2.7-9.7-9.1-14.6-19.2-14.6s-3.9.2-5.9,0c-4.3-.5-6.7,1.1-7.5,5.5-.7,4-2.1,7.9-3.2,11.8-5,18.1-10.1,36.1-15,54.2-3.2,12-1.5,13.9,10.6,14,4.1,0,6.2-1.5,6.6-5.4.5-5.7,3.7-8.9,8.9-11,4.7-1.9,9.1-4.3,13.5-6.8,3.4-1.9,5.1-1.7,6,2.6,1.1,5.6,2.7,11.1,4.1,16.6.5,1.9,1.2,4,3.7,3.9,4.5-.3,9.1,1.4,13.3-1.2.6-.4.6-2.1.6-3.2.2-3.9-.3-7.8-1.3-11.6-5.1-18.2-10.1-36.4-15.2-54.7h0ZM338.2,406.3c-3.7-.2-7.5-.2-11.2,0-2.8,0-3.9-.8-3.2-3.7,2.7-10.6,5.2-21.2,7.9-31.8.1-.6.6-1,1.2-1.9,1.9,2.5,2,5.1,2.6,7.6,2.1,8.4,4.1,16.8,6.2,25.1.8,3.2.5,5-3.5,4.7h0Z"/>
            <path class="cls-1" d="M184.6,418.1c-7,.2-14-.1-21.1.1-4.3.2-5.7-1.3-5.7-5.6.2-16.3.2-32.6,0-48.9-.2-14.9,2.7-12.8-13.8-13.1-3.8,0-5.1,1.5-5.1,5.3.2,10.1,0,20.2,0,30.3s.5,16.7-.1,24.9c-.7,9,2.8,15.8,8.5,22,1.8,2,3.7,2.9,6.4,2.9h24c13.8-.2,12.2,2.4,12.4-12.6,0-4.2-1.7-5.4-5.6-5.3h.1Z"/>
            <path class="cls-1" d="M218.6,394.1v-30.3c-.1-15,1.9-13-13.4-13.3-4.3,0-6.2,1.3-6.2,5.8.1,24.6.1,49.2,0,73.8,0,4,1.3,6.2,5.7,5.8,2.8-.2,5.6-.2,8.3,0,4.4.4,5.7-1.6,5.6-5.7-.2-12.1,0-24.1,0-36.2h0Z"/>
          </g>
        </g>
        <g id="_德國甲級聯賽" class="cls-2">
          <path class="cls-1" d="M502.1,54.5c3.3,0,4.9,1.7,4.9,5v392.9c0,3.4-1.7,5.1-5.2,5.1H5.5c-1.4,0-2.2-.7-2.3-2.2V57.9c-.2-2.6,1-3.4,3.5-3.4h495.4ZM135.3,146.3c-1.8,1.7-3.4,2.2-4.9,2.6-6.1,1.4-8.9,5.4-10.6,11.2-4.4,14.7-7.3,29.7-9.5,44.9-.8,5.5-1.4,10.9-1.4,16.4s-1.7,5.2,2.8,4.2c.9-.2.8.9.8,1.6-1,9.8-.3,19.6.9,29.4,1.7,13.9,4.5,27.7,8.6,41.1.5,1.7,1.3,2.8,3.2,3,1.2.1,2.3.6,2.6,2.1,2.3,9.8,6.1,19.1,10,28.3.6,1.4.7,2.4-1.2,2.8-5.8,1-10.7,3.9-15.4,7.2-10.6,7.4-19.9,16.5-29.4,25.3-8.2,7.6-14.6,8.5-24.6,3.4-3.9-2-9.4-1.9-11.3,1.7-1.7,3.2-4.2,6.6-4.4,10.6,0,1.2-.2,2.2-.8,3.1-3.7,4.8-7.1,9.8-11.4,14.2-1,1-1.4,2.2-.9,3.6.8,2.4.3,4.5-1.3,6.4-.9,1.1-1.2,2.5-.5,3.3,1.7,2.1,1.4,4.5,1.4,6.9s.9,3.7,3,4.2c2.3.6,4.3.2,5.6-2.2,4.3-8,10.8-14.1,18.2-19.2,10.9-7.5,23.1-12.4,35.4-17.1,17.1-6.5,34.6-12.1,51.3-19.8.9-.4,2.5-.6,2.4-1.6-.3-3,2.2-3.3,3.8-4.3,2.9-1.8,5.9-3.5,8.8-5.2,6.8-3.9,9.3-9.9,8.9-17.4-.7-11.2-.7-22.4-2.1-33.6-.2-1.4,0-2.6,1.6-3.1,1.5-.4,1.7-1.3,1.5-2.7-1-8.2-1.9-16.5-2.7-24.8-.2-1.7-.9-2.7-2.4-3.5-2.3-1.2-4.9-2-7.1-3.9,1.4-.8,2.6-.5,3.8-.5h59.2c1.3,0,3.1.6,3.7-1.1.8-1.9,2.2-2,3.9-2,12.9.3,25.8.5,38.8.7,3.6,0,7,1.1,9.9,3.2,9.4,6.9,20.3,7.1,31.1,6.6,13.9-.5,27.6-.3,41.3,2.2,2.7.5,4.1,1.9,4.4,4.5.3,2,.5,4,.9,5.9,1,4.6,3.8,6.5,8.4,5.7.8-.1,1.5-.2,2.3.2,1.8.7,3.2.1,3.8-1.7.6-1.7,1.5-2.2,3.2-1.4,1.4.7,3.1,0,3.3-1.1.6-2.6,2.8-3,4.5-3.8,4.1-1.9,8.2-3.8,12.3-5.6,1.9-.9,4.3-1,6-1.6,3.1-1,5.9-3.1,9.2-4.2.8-.3.8-2,1.8-2.8,2.2-1.7,2.1-3.5-.1-5.4-1.2-1-2.7-1.2-4.2-1.3-7.8-.4-15.6-.5-23.4-1.4-19.9-2.2-38.7-8.1-57.1-15.9-11.7-5-22.6-12.6-36.3-12.4-3.4,0-6.9-.9-10.4-1.1-3.1-.2-6.3.2-9.2-1.1-11.1-4.8-22.7-7.9-34.6-9.8-2-.3-3.6-.9-4.1-3.1-.4-1.5-1.8-1.7-3.1-1.9-18.5-2.5-36.8-5.4-55.4-7.4-2.5-.3-3.4-1.1-2.9-3.8,3.3-16.6,9.4-32.3,16.4-47.6q3-6.5,10.1-5.6c4.5.5,7.7-1.3,9.5-5.4,1.6-3.6,2.9-7.4,6.2-9.8,2.4-1.7,2.7-3.6,2.3-6.2-.8-5.4-1-10.8,1.4-15.9,2-4.2,1.1-8-1.2-11.7-4.2-6.5-10.2-10.7-17.5-13-8.3-2.6-16.3-1.9-23.3,3.8-6.1,4.9-8.2,11.9-9.1,19.3-.6,5-.7,5-5.7,4-19.6-3.7-39.3-2.1-59-.5-1.5,0-2.3,1-2.6,2.4-.3,1.4-1.1,2.4-2.7,2.2-5.1-.5-8.3,2.3-11.5,5.8-10.6,12.2-20.7,24.7-30.6,37.5-1,1.3-2,2.7-3.9,3-3.4.4-6,2.4-7.9,5-2.6,3.7-6.1,6-10.2,7.6-1.6.6-4.5.9-3.7,3.4.9,2.6,3.5,1.2,5.2.8,2.2-.5,4.2-1.6,7-2.7-2.5,4.1-5.7,6.1-8.8,8.2-1,.7-2.6,1.3-2.2,2.9.4,1.7,2,2.1,3.6,2.2,5,.5,9.9-.6,14.2-3.1,4.8-2.9,9.6-5.9,10.8-12.2.4-2.2,2.1-3.6,3.7-5,11.2-9.6,22.4-19.2,33.5-28.8,1-.9,2.1-1.5,3.5-1.4,7.9.6,15.8,1.2,23.7,1.8,2.7.2,5.5.5,8.8.8v.5ZM478.1,225.6c0-15.5-12.1-27.6-27.6-27.6s-27.5,12.5-27.5,27.6,12.3,27.5,27.5,27.5,27.7-11.9,27.7-27.5h-.1Z"/>
        </g>
      </g>
      <g>
        <path class="cls-1" d="M417,203.5v.2c-4.7-7-7.8-7.1-11.3,1.2-4.8-7.4-14.1-11.1-8.1-21.8,2.2-4-1.6-9.4-5.5-12.8-4.1-3.5-8-1-11.3,1.4-4.8,3.6-8.8,2.7-13.4-.4-2.6-1.7-5.2-4.6-9.1-2.9,5.3,18.5,22.2,27.7,33.5,41.8-8.2-1.2-16.4-3.2-23-.7-23.1,8.6-36-5-48.8-20.2-.2-.3-.5-.6-.8-.8-5.6-4.5-5.9-9.9-3.3-16.2,1-2.4,4.4-4.6,1.9-8.4-1.4,0-3.2-.3-4.2.5-10.1,8-19.1,4.3-28.6-1.7-16.7-10.5-31.6-4.4-45.7,6.3-4.9,3.8-5,6.8.8,10,8.7,4.8,17.8,9.8,27.7,8.2,25.4-4.1,37.9,13,53.8,30.8-19.7-5-36.9-2.8-54.1-2.7-18.7.2-35.6-5.4-44.6-23.1-4.6-8.9-6.6-18.8-20.7-17.6,6.1-8.2,12.5-12.2,18.7-16.4,4.7-3.3,14.4-3.7,6.4-13.7-2.3-2.9,2.8-5.5,5.4-7.4,10.9-7.7,23.4-11.8,35.9-16.2,13.1-4.6,24.9-3.7,36.3,4.4,7,5,14.7,9.2,21.7,14.2,5.5,3.9,8.4,2.9,10.9-3.3,5.3-13.2,5.4-13,18.3-5.3,14.7,8.8,27.9,19.8,41.5,30.6-2.1-8.5-6.9-16.4-7.5-24.5-1.3-17.3-12.5-25.8-25.6-33-7.5-4.2-15.5-7.7-23.6-10.7-18-6.8-18.1-6.6-17.5,11.2-2.8.6-4.1-1.7-5.4-3.3-13-15.2-29.3-21.1-49.2-19.2-10.5,1-21.1,1.1-31.4,3-21.4,4-42.3,9.5-63.1,21.7,11.3,4.1,20.6,7.9,25,18.7-24.7-5.2-34.8-2.8-41.7,9.6-8.1,14.6-3.8,29.4,1.3,46.1-18.9-16.4-18.3-35.4-13.5-57.2-26.7,20-46.9,42.4-62.1,69.3-6.5,11.4-6.4,11.9,6.7,14.7,6,1.3,8.2,3.4,3.9,8.8-1.4,1.8-2.6,3.7-3.9,5.6-16.7,25.5-27.9,53.2-33.2,83.3-2,11.7-.4,13.2,10.7,9.9,5.4-1.6,10.7-3.5,16.1-5.1,5.1-1.5,8-.5,7.2,5.8-1,7.8-1.9,15.7-2.2,23.6-1.3,30.7,1.3,60.9,12.4,89.9,5.1,13.3,6.7,13.5,17.5,3.7,16.7-15.3,31.2-32.6,44.3-51.1,1.6-2.3,2.5-6.3,6.2-5.4,2.8.7,2.9,4.2,3.3,6.7,3.6,18.9,6.8,37.8,4.1,57.1-2,14.1-3.4,28.4-5.9,42.4-1.3,7.3,1.2,10.9,7.6,14.1,15,7.5,32.2,12.3,48.7,12.7,16.8.4,33.9.8,50.4-3,16.4-3.7,33.6-10.7,48-19.2,13.4-7.9,13.4-10,17.7,7.2,3,11.8,4.5,12.3,13.8,5.3,26.8-20.1,47-45.3,59.1-76.8,5.1-13.3,7.6-27.3,10.6-40.8,3.1-.5,4,1.5,5.4,2.5,4,3.1,6.2,10.9,11.7,8.9,4.5-1.7,4.4-9.1,5.8-14.1,17.1-63.8,3.6-122.1-32-176.4ZM301.5,300.2h-.1c-4.2-9.4-9-18.3-14.1-27.1-3.4-5.8-2.1-9.6,3.1-13.3,8.6-6.1,17.9-11.1,26.7-16.8,17.3-11.3,32.4-6.6,47.6,4.1,6.4,4.5,3.4,10.9,4.2,16.4,1.8,9-2.2,14.9-9.2,20.2-12.7,9.5-25.5,18.7-40.8,23.6-7.9,2.5-13.6,1.3-17.4-7.1ZM392.5,341.7c-4.4,10.8-9.6,21-21.1,28.5-1.7-9.8,1-21.1-5.6-25-6.3-3.7-13.1,6.5-20.6,8.5-4.4,1.2-9.4,6.4-13.3,1.5-4.9-6-9.2-12.9-11-20.7-.6-2.7,3.1-2.7,5.1-3.5,11-4.2,20.8-10.4,30.2-17.4,9.3-7,24.3-8.9,30.4-4,7.9,6.3,10.6,20.3,5.9,32.1ZM407.4,299.4h0c-3.7,2.4-9.6-10.9-15-16.8-11.4-12.6-8.2-31.7,5.6-41.3,6.7-4.7,9-2.3,10.9,4.1,2.7,9.1,3.9,18.3,3.7,31.2-.3,5.9,2.3,17.9-5.3,22.8Z"/>
        <path class="cls-1" d="M157.4,88.2h.2c3,9.4,6.6,11.5,15.9,6.5,26.6-14.2,55.2-21.3,85.4-23.1,21.6-1.3,42.8.3,63.9,4.7,4.2.9,10.7,4.5,12.1-3.1,3-17.1,6.2-34.1,11.2-51.1-11.3,7-19.4,16.8-29.2,26.6-2.9-16.4-3-31.7-3.5-47h-4.5c-10.4,15.2-23.8,27.7-36.1,41.3-4.3,4.7-7,1.6-9.5-2.3-8.1-13-16.3-26-24.5-38.9h-2.3c-4,12.1-7.9,24.3-12,36.4-3.5,10.5-10,12.5-19.4,6-12.2-8.5-24.5-16.9-38.5-26.5-.4,17.3,5.1,31.5,5.3,47.2-12.2-6.4-21.4-16.3-36.4-19.4,9.8,14.5,17.3,28,21.9,42.7Z"/>
      </g>
    </g>
  </g>
</svg>